<svg id="Layer_1" data-name="Layer 1" xmlns="http://www.w3.org/2000/svg" viewBox="0 0 1000.08 1000"><defs><style>.cls-1{fill:#aaa;}</style></defs><path class="cls-1" d="M909.37,539.38C909.09,743.08,757.1,917.5,556,944.93c-221.49,30.2-428.2-124.29-460.74-344.35C68,416.52,165.86,238.76,336.16,162.92c35-15.6,71.5,2.86,75.48,38.48,1.77,15.8-3.76,29.27-15.51,40-9.77,8.94-20.94,15.8-32.67,21.91-100.07,52.14-156.75,134.6-169.18,246.42-13.54,121.87,52.77,244.46,161.19,301.4,165.63,87,367.15,10.2,432.77-164.89,53.17-141.87-6.12-302.95-138.82-376.45-15.13-8.38-31.14-15.18-44-27.23-14.7-13.82-21.73-30.36-16.49-50.5,8.22-31.6,40.92-44.39,74.72-29.2A426.59,426.59,0,0,1,754,217.66,410.89,410.89,0,0,1,909.37,539.38Z"/><path class="cls-1" d="M558.67,296.29c0,62.66.14,125.33-.07,188-.08,25.55-11.73,44.67-35,55.52s-45.17,7-65.09-8.92c-14.31-11.47-20.3-26.89-20.31-44.7q-.15-189.55.08-379.11c.09-31.14,28.44-56.35,60.8-55.76,33.23.61,59.38,25.36,59.48,57C558.82,171,558.67,233.62,558.67,296.29Z"/></svg>